# xmcd CD database file
#
# Track frame offsets:
#	150
#	26208
#	42055
#	68676
#	87271
#	113113
#	137195
#	169486
#	188114
#	209112
#	228047
#
# Disc length: 3268 seconds
#
# Revision: 0
# Processed by: cddbd v1.5.2PL0 Copyright (c) Steve Scherf et al.
# Submitted via: cdripper 1,0,39,0213
#
DISCID=9a0cc20b
DTITLE=Carl Saunders - The Lost Bill Holman Charts
DYEAR=2007
DGENRE=Jazz
TTITLE0=Three Little Words
TTITLE1=The Hook
TTITLE2=Primrose
TTITLE3=Ow
TTITLE4=St. Theodore
TTITLE5=Hannibal
TTITLE6=Dr. Deep
TTITLE7=We'll Be Together Again
TTITLE8=All Too Soon
TTITLE9=Dearly Beloved
TTITLE10=Scratch
EXTD=YEAR: 2007
EXTT0=
EXTT1=
EXTT2=
EXTT3=
EXTT4=
EXTT5=
EXTT6=
EXTT7=
EXTT8=
EXTT9=
EXTT10=
PLAYORDER=
